<svg  id="phoenix" xmlns="http://www.w3.org/2000/svg"
     width="40px" height="40px" viewBox="0 0 296.000000 170.000000"
     preserveAspectRatio="xMidYMid meet">

    <g transform="translate(0.000000,170.000000) scale(0.100000,-0.100000)"
       fill="#FCE300" stroke="none">
        <path d="M1285 1575 c-275 -69 -412 -109 -552 -162 l-93 -36 0 -183 0 -183 88
30 c48 17 183 55 301 85 147 37 218 60 226 72 70 99 287 433 284 436 -2 2
-116 -24 -254 -59z"/>
        <path d="M508 1311 c-194 -109 -306 -212 -366 -339 -110 -232 3 -496 323 -755
61 -49 118 -93 128 -98 16 -9 17 23 17 616 0 344 -3 625 -7 625 -5 0 -47 -22
-95 -49z"/>
        <path d="M688 534 c-42 -22 -48 -43 -48 -159 0 -104 1 -107 29 -136 28 -27 34
-29 110 -29 l81 0 0 -50 c0 -47 2 -50 25 -50 l25 0 0 200 0 200 88 0 c118 0
122 -4 122 -133 0 -122 -5 -127 -106 -127 -67 0 -74 -2 -74 -20 0 -18 7 -20
84 -20 75 0 88 3 113 24 27 23 28 29 31 126 7 183 -3 190 -265 190 -146 -1
-194 -4 -215 -16z m172 -154 l0 -130 -73 0 c-43 0 -78 5 -85 12 -8 8 -12 49
-12 120 0 126 1 127 103 128 l67 0 0 -130z"/>
        <path d="M2211 330 l-2 -220 26 0 25 0 0 115 0 115 86 0 c124 0 124 0 124
-125 l0 -105 25 0 25 0 0 103 c0 77 -4 108 -16 125 -14 20 -14 24 0 44 9 12
16 39 16 60 0 34 -3 38 -25 38 -22 0 -25 -4 -25 -34 0 -56 -19 -66 -121 -66
l-89 0 0 85 c0 83 -1 85 -24 85 l-24 0 -1 -220z"/>
        <path d="M1248 434 c-42 -22 -48 -43 -48 -158 0 -98 2 -106 26 -135 l26 -31
110 0 c99 0 109 2 106 18 -3 14 -17 17 -100 20 -70 2 -99 7 -109 18 -8 10 -11
48 -10 117 2 123 5 127 103 127 78 0 108 -19 108 -68 0 -53 -20 -66 -104 -70
-67 -4 -76 -7 -76 -23 0 -17 8 -19 68 -19 88 0 133 22 149 72 17 52 1 103 -40
128 -40 25 -167 27 -209 4z"/>
        <path d="M1540 280 c0 -163 1 -170 20 -170 18 0 20 7 20 60 l0 60 110 0 110 0
0 -60 c0 -53 2 -60 20 -60 19 0 20 7 20 170 0 162 -1 170 -20 170 -17 0 -19
-8 -22 -87 l-3 -88 -105 0 -105 0 -3 88 c-3 79 -5 87 -22 87 -19 0 -20 -8 -20
-170z"/>
        <path d="M1877 443 c-12 -11 -8 -253 4 -276 26 -50 46 -57 177 -57 l122 0 0
170 0 170 -24 0 -25 0 2 -150 2 -150 -92 0 c-125 0 -123 -3 -123 166 0 123 -1
134 -18 134 -10 0 -22 -3 -25 -7z"/>
        <path d="M2614 440 c-12 -4 -31 -21 -43 -37 -21 -25 -22 -37 -19 -136 3 -105
4 -110 31 -133 25 -22 37 -24 123 -24 92 0 97 1 125 29 39 39 41 91 4 91 -21
0 -25 -5 -25 -28 0 -15 -5 -33 -12 -40 -16 -16 -170 -16 -186 0 -8 8 -12 48
-12 113 0 126 6 135 101 135 78 0 109 -17 109 -61 0 -24 4 -29 25 -29 20 0 25
5 25 25 0 40 -21 73 -55 90 -36 16 -155 20 -191 5z"/>
    </g>
</svg>
