<svg id="taxi_yellow" fill="#FCE300" height="800px" width="800px"  xmlns="http://www.w3.org/2000/svg" xmlns:xlink="http://www.w3.org/1999/xlink"
     viewBox="0 0 190.5 190.5" xml:space="preserve">
<path d="M150.9,167.914h-37.1c-1.381,0-2.5-1.119-2.5-2.5v-34.6H79.2v34.6c0,1.381-1.119,2.5-2.5,2.5h-37.1
	c-1.381,0-2.5-1.119-2.5-2.5v-34.6H2.5c-1.381,0-2.5-1.119-2.5-2.5v-37.1c0-1.381,1.119-2.5,2.5-2.5h37.101
	c1.381,0,2.5,1.119,2.5,2.5v34.6h32.1v-34.6c0-1.381,1.119-2.5,2.5-2.5h37.101c1.381,0,2.5,1.119,2.5,2.5v34.6h32.1v-34.6
	c0-1.381,1.119-2.5,2.5-2.5H188c1.381,0,2.5,1.119,2.5,2.5v37.1c0,1.381-1.119,2.5-2.5,2.5h-34.6v34.6
	C153.4,166.795,152.281,167.914,150.9,167.914z M116.301,162.914h32.1v-32.1h-32.1V162.914z M42.101,162.914h32.1v-32.1h-32.1
	V162.914z M153.4,125.814h32.1v-32.1h-32.1V125.814z M79.2,125.814h32.101v-32.1H79.2V125.814z M5,125.814h32.101v-32.1H5V125.814z
	 M96.723,69.773c-0.996,0-1.938-0.6-2.326-1.582l-5.032-12.738H70.745l-5.032,12.738c-0.508,1.284-1.958,1.915-3.244,1.406
	c-1.284-0.508-1.913-1.96-1.406-3.244l5.634-14.259c0.015-0.04,0.03-0.08,0.047-0.119l10.982-27.798
	c0.008-0.021,0.017-0.04,0.024-0.06c0.127-0.303,0.308-0.568,0.526-0.789c0,0,0,0,0-0.001h0.001
	c0.236-0.239,0.525-0.435,0.858-0.566c0.302-0.119,0.612-0.176,0.918-0.176h0.001c0,0,0,0,0.001,0c0.269,0,0.542,0.044,0.809,0.136
	h0.001c0.001,0.002,0.003,0.003,0.009,0.003l0,0c0.043,0.016,0.086,0.031,0.128,0.049c0.001,0,0.002,0.001,0.002,0.001h0.001
	c0.313,0.129,0.588,0.314,0.814,0.541c0.224,0.222,0.408,0.49,0.538,0.798c0,0,0,0.002,0.002,0.005
	c0.008,0.02,0.017,0.039,0.024,0.06l10.982,27.799c0.017,0.038,0.032,0.078,0.047,0.117l5.634,14.26
	c0.507,1.284-0.122,2.736-1.406,3.244C97.339,69.717,97.028,69.773,96.723,69.773z M72.721,50.453h14.668l-7.334-18.563
	L72.721,50.453z M133.981,69.772c-0.794,0-1.575-0.377-2.06-1.081l-12.49-18.108l-12.49,18.108
	c-0.783,1.138-2.343,1.422-3.477,0.639c-1.137-0.783-1.423-2.341-0.639-3.477l13.568-19.674l-13.568-19.674
	c-0.784-1.136-0.498-2.693,0.639-3.477c1.136-0.783,2.694-0.499,3.477,0.639l12.49,18.108l12.49-18.108
	c0.782-1.139,2.341-1.423,3.477-0.639c1.137,0.783,1.423,2.341,0.639,3.477L122.469,46.18l13.568,19.674
	c0.784,1.136,0.498,2.693-0.639,3.477C134.966,69.629,134.471,69.772,133.981,69.772z M146.604,69.772c-1.381,0-2.5-1.119-2.5-2.5
	V25.087c0-1.381,1.119-2.5,2.5-2.5s2.5,1.119,2.5,2.5v42.186C149.104,68.653,147.984,69.772,146.604,69.772z M48.435,69.772
	c-1.381,0-2.5-1.119-2.5-2.5V27.587H33.181c-1.381,0-2.5-1.119-2.5-2.5s1.119-2.5,2.5-2.5h30.509c1.381,0,2.5,1.119,2.5,2.5
	s-1.119,2.5-2.5,2.5H50.935v39.686C50.935,68.653,49.815,69.772,48.435,69.772z"/>
</svg>
